<svg width="60" height="61" viewBox="0 0 60 61" fill="none" xmlns="http://www.w3.org/2000/svg">
<path d="M30 0.120117C13.5 0.120117 0 13.6442 0 30.3008C0 45.3611 10.98 57.8611 25.32 60.1201V39.0358H17.7V30.3008H25.32V23.6442C25.32 16.084 29.79 11.9273 36.66 11.9273C39.93 11.9273 43.3499 12.4996 43.3499 12.4996V19.9394H39.57C35.85 19.9394 34.68 22.2587 34.68 24.6382V30.3008H43.0199L41.6699 39.0358H34.68V60.1201C41.7493 58.9992 48.1866 55.3777 52.8297 49.9095C57.4729 44.4412 60.016 37.4865 59.9999 30.3008C59.9999 13.6442 46.4999 0.120117 30 0.120117Z" fill="#7C7C7C"/>
</svg>
