<svg width="61" height="60" viewBox="0 0 61 60" fill="none" xmlns="http://www.w3.org/2000/svg">
<g clip-path="url(#clip0)">
<path d="M24.3411 30C24.3411 33.1714 26.9119 35.7422 30.0833 35.7422C33.2547 35.7422 35.8255 33.1714 35.8255 30C35.8255 26.8286 33.2547 24.2578 30.0833 24.2578C26.9119 24.2578 24.3411 26.8286 24.3411 30Z" fill="#7C7C7C"/>
<path d="M16.6544 19.8403C16.9304 19.0923 17.3708 18.4153 17.943 17.8596C18.4987 17.2874 19.1753 16.847 19.9237 16.571C20.5307 16.3352 21.4426 16.0546 23.1221 15.9781C24.939 15.8953 25.4837 15.8774 30.0833 15.8774C34.6834 15.8774 35.2281 15.8948 37.0445 15.9777C38.7241 16.0546 39.6364 16.3352 40.2429 16.571C40.9914 16.847 41.6684 17.2874 42.2237 17.8596C42.7959 18.4153 43.2362 19.0919 43.5127 19.8403C43.7485 20.4473 44.0291 21.3596 44.1055 23.0392C44.1884 24.8556 44.2062 25.4003 44.2062 30.0004C44.2062 34.6 44.1884 35.1447 44.1055 36.9616C44.0291 38.6411 43.7485 39.553 43.5127 40.16C43.2362 40.9084 42.7963 41.585 42.2241 42.1407C41.6684 42.7129 40.9918 43.1533 40.2434 43.4293C39.6364 43.6655 38.7241 43.9461 37.0445 44.0226C35.2281 44.1054 34.6838 44.1228 30.0838 44.1228C25.4832 44.1228 24.9385 44.1054 23.1226 44.0226C21.443 43.9461 20.5307 43.6655 19.9237 43.4293C18.4213 42.8498 17.2339 41.6624 16.6544 40.16C16.4186 39.553 16.138 38.6411 16.0611 36.9616C15.9782 35.1447 15.9608 34.6 15.9608 30.0004C15.9608 25.4003 15.9782 24.8556 16.0611 23.0392C16.1375 21.3596 16.4182 20.4473 16.6544 19.8403ZM30.0833 38.8457C34.969 38.8457 38.9296 34.8856 38.9296 29.9999C38.9296 25.1142 34.969 21.1541 30.0833 21.1541C25.1981 21.1541 21.2375 25.1142 21.2375 29.9999C21.2375 34.8856 25.1981 38.8457 30.0833 38.8457ZM20.8878 22.8716C22.0294 22.8716 22.955 21.946 22.955 20.8044C22.955 19.6627 22.0294 18.7371 20.8878 18.7371C19.7461 18.7371 18.8205 19.6627 18.8205 20.8044C18.821 21.946 19.7461 22.8716 20.8878 22.8716Z" fill="#7C7C7C"/>
<path d="M30.0833 0C46.6493 0 60.0833 13.434 60.0833 30C60.0833 46.566 46.6493 60 30.0833 60C13.5173 60 0.083313 46.566 0.083313 30C0.083313 13.434 13.5173 0 30.0833 0ZM12.9607 37.1022C13.044 38.936 13.3356 40.188 13.7613 41.2839C14.6562 43.5979 16.4854 45.4271 18.7994 46.322C19.8949 46.7477 21.1473 47.0389 22.9807 47.1227C24.8177 47.2064 25.4045 47.2266 30.0829 47.2266C34.7617 47.2266 35.3481 47.2064 37.1855 47.1227C39.0189 47.0389 40.2713 46.7477 41.3667 46.322C42.5166 45.8894 43.5576 45.2115 44.4182 44.3349C45.2943 43.4747 45.9723 42.4333 46.4049 41.2839C46.8306 40.1884 47.1222 38.936 47.2055 37.1027C47.2902 35.2652 47.3099 34.6783 47.3099 30C47.3099 25.3217 47.2902 24.7348 47.206 22.8978C47.1227 21.064 46.8315 19.812 46.4058 18.7161C45.9732 17.5667 45.2948 16.5253 44.4182 15.6651C43.558 14.7885 42.5166 14.1106 41.3672 13.678C40.2713 13.2523 39.0193 12.9611 37.1855 12.8773C35.3485 12.7936 34.7617 12.7734 30.0833 12.7734C25.405 12.7734 24.8181 12.7936 22.9811 12.8778C21.1473 12.9611 19.8953 13.2523 18.7994 13.6775C17.65 14.1101 16.6086 14.7885 15.748 15.6651C14.8718 16.5257 14.1934 17.5667 13.7613 18.7161C13.3351 19.812 13.044 21.064 12.9602 22.8978C12.8764 24.7348 12.8568 25.3217 12.8568 30C12.8568 34.6783 12.8764 35.2652 12.9607 37.1022Z" fill="#7C7C7C"/>
</g>
<defs>
<clipPath id="clip0">
<rect width="60" height="60" fill="white" transform="matrix(-1 0 0 1 60.0833 0)"/>
</clipPath>
</defs>
</svg>
