<svg width="61" height="60" viewBox="0 0 61 60" fill="none" xmlns="http://www.w3.org/2000/svg">
<path d="M30.0833 0C13.5153 0 0.0833282 13.4314 0.0833282 30C0.0833282 46.5686 13.5153 60 30.0833 60C46.6513 60 60.0833 46.5686 60.0833 30C60.0833 13.4314 46.6513 0 30.0833 0ZM45.3009 33.2446C46.6992 34.6103 48.1785 35.8957 49.4337 37.4026C49.9898 38.0692 50.514 38.7585 50.913 39.5337C51.4826 40.6392 50.9682 41.8515 49.9788 41.9171L43.8327 41.9159C42.2454 42.0473 40.9822 41.4071 39.9172 40.3218C39.0671 39.457 38.2783 38.5332 37.4595 37.6389C37.125 37.2718 36.7726 36.9262 36.3528 36.6543C35.5149 36.1093 34.787 36.2762 34.307 37.1515C33.8178 38.0421 33.706 39.0292 33.6594 40.0205C33.5925 41.4697 33.1554 41.8484 31.7013 41.9165C28.5942 42.062 25.6461 41.5906 22.906 40.0241C20.4889 38.6425 18.618 36.6924 16.9877 34.4845C13.813 30.1805 11.3817 25.4566 9.19719 20.597C8.70553 19.5026 9.06522 18.917 10.2726 18.8943C12.2785 18.8557 14.2845 18.8606 16.2904 18.8925C17.1068 18.9054 17.6469 19.3725 17.9606 20.1428C19.0446 22.8098 20.3735 25.3473 22.0387 27.7007C22.4825 28.3274 22.9355 28.9522 23.5806 29.3948C24.2926 29.8834 24.8352 29.7219 25.171 28.9271C25.3858 28.4219 25.4785 27.8817 25.5252 27.3404C25.6848 25.486 25.7038 23.6323 25.4276 21.7854C25.2557 20.6296 24.6057 19.8832 23.4536 19.6647C22.8668 19.5536 22.9527 19.3363 23.2381 19.0011C23.7335 18.4217 24.1975 18.0632 25.125 18.0632L32.069 18.062C33.1634 18.2768 33.409 18.7679 33.5575 19.8703L33.5636 27.5871C33.5507 28.0137 33.7779 29.2782 34.5439 29.5574C35.1577 29.76 35.5628 29.2677 35.9299 28.8792C37.5951 27.112 38.7816 25.0263 39.8441 22.8675C40.3131 21.9155 40.7176 20.9303 41.1104 19.9433C41.4026 19.2135 41.8568 18.8544 42.6806 18.8667L49.3674 18.8747C49.5645 18.8747 49.7646 18.8765 49.9597 18.9103C51.0867 19.103 51.3955 19.5879 51.0468 20.6873C50.4981 22.4145 49.4319 23.8533 48.3896 25.2958C47.2725 26.8401 46.0811 28.3304 44.975 29.8815C43.9585 31.2994 44.0389 32.0133 45.3009 33.2446Z" fill="#7C7C7C"/>
</svg>
